<svg width="46" height="12" viewBox="0 0 46 12" fill="none" xmlns="http://www.w3.org/2000/svg">
<path d="M2.217 3.31004V5.58504H5.272V7.02804H2.217V9.43304H5.662V10.915H0.397V1.82804H5.662V3.31004H2.217ZM16.2599 3.60904C17.1439 3.60904 17.8546 3.88204 18.3919 4.42804C18.9379 4.96537 19.2109 5.71937 19.2109 6.69004V10.915H17.3909V6.93704C17.3909 6.37371 17.2479 5.94471 16.9619 5.65004C16.6759 5.34671 16.2859 5.19504 15.7919 5.19504C15.2979 5.19504 14.9036 5.34671 14.6089 5.65004C14.3229 5.94471 14.1799 6.37371 14.1799 6.93704V10.915H12.3599V6.93704C12.3599 6.37371 12.2169 5.94471 11.9309 5.65004C11.6449 5.34671 11.2549 5.19504 10.7609 5.19504C10.2583 5.19504 9.85961 5.34671 9.56495 5.65004C9.27895 5.94471 9.13595 6.37371 9.13595 6.93704V10.915H7.31595V3.71304H9.13595V4.58404C9.36995 4.28071 9.66895 4.04237 10.0329 3.86904C10.4056 3.69571 10.8129 3.60904 11.2549 3.60904C11.8183 3.60904 12.3209 3.73037 12.7629 3.97304C13.2049 4.20704 13.5473 4.54504 13.7899 4.98704C14.0239 4.57104 14.3619 4.23737 14.8039 3.98604C15.2546 3.73471 15.7399 3.60904 16.2599 3.60904ZM20.47 7.28804C20.47 6.56004 20.613 5.91437 20.899 5.35104C21.1937 4.78771 21.588 4.35437 22.082 4.05104C22.5847 3.74771 23.1437 3.59604 23.759 3.59604C24.2963 3.59604 24.7643 3.70437 25.163 3.92104C25.5703 4.13771 25.8953 4.41071 26.138 4.74004V3.71304H27.971V10.915H26.138V9.86204C25.904 10.2 25.579 10.4817 25.163 10.707C24.7557 10.9237 24.2833 11.032 23.746 11.032C23.1393 11.032 22.5847 10.876 22.082 10.564C21.588 10.252 21.1937 9.81437 20.899 9.25104C20.613 8.67904 20.47 8.02471 20.47 7.28804ZM26.138 7.31404C26.138 6.87204 26.0513 6.49504 25.878 6.18304C25.7047 5.86237 25.4707 5.61971 25.176 5.45504C24.8813 5.28171 24.565 5.19504 24.227 5.19504C23.889 5.19504 23.577 5.27737 23.291 5.44204C23.005 5.60671 22.771 5.84937 22.589 6.17004C22.4157 6.48204 22.329 6.85471 22.329 7.28804C22.329 7.72137 22.4157 8.10271 22.589 8.43204C22.771 8.75271 23.005 8.99971 23.291 9.17304C23.5857 9.34637 23.8977 9.43304 24.227 9.43304C24.565 9.43304 24.8813 9.35071 25.176 9.18604C25.4707 9.01271 25.7047 8.77004 25.878 8.45804C26.0513 8.13737 26.138 7.75604 26.138 7.31404ZM30.6716 2.85504C30.3509 2.85504 30.0822 2.75537 29.8656 2.55604C29.6576 2.34804 29.5536 2.09237 29.5536 1.78904C29.5536 1.48571 29.6576 1.23437 29.8656 1.03504C30.0822 0.827039 30.3509 0.723039 30.6716 0.723039C30.9922 0.723039 31.2566 0.827039 31.4646 1.03504C31.6812 1.23437 31.7896 1.48571 31.7896 1.78904C31.7896 2.09237 31.6812 2.34804 31.4646 2.55604C31.2566 2.75537 30.9922 2.85504 30.6716 2.85504ZM31.5686 3.71304V10.915H29.7486V3.71304H31.5686ZM35.1867 1.29504V10.915H33.3667V1.29504H35.1867Z" fill="black"/>
<path d="M44.3725 1.99704L45.0225 3.16704L43.3325 3.77804L45.0225 4.38904L44.3465 5.59804L42.9425 4.44104L43.2415 6.23504H41.8895L42.1755 4.44104L40.7845 5.62404L40.0695 4.37604L41.7595 3.76504L40.0825 3.18004L40.7455 1.98404L42.1885 3.12804L41.8895 1.32104H43.2545L42.9425 3.12804L44.3725 1.99704Z" fill="#C94D3F"/>
</svg>
